<svg xmlns="http://www.w3.org/2000/svg" xmlns:xlink="http://www.w3.org/1999/xlink" viewBox="0 0 90.3 64.62"><defs><style>.cls-1{fill:none;}.cls-2{fill:#15b4e9;}.cls-3{fill:#005578;}.cls-4{clip-path:url(#clip-path);}.cls-5{fill:url(#linear-gradient);}.cls-6{clip-path:url(#clip-path-2);}.cls-7{fill:url(#linear-gradient-2);}.cls-8{clip-path:url(#clip-path-3);}.cls-9{fill:url(#linear-gradient-3);}</style><clipPath id="clip-path"><path class="cls-1" d="M22.62,18.82a13.87,13.87,0,0,0,2,6.56c6,10.49,14.44,6.33,14.44,6.33s-3.66-2-7.14-12.75a37.44,37.44,0,0,1-2-9c-3.32,1.67-5.82,4.7-7.33,8.9"/></clipPath><linearGradient id="linear-gradient" x1="-29.31" y1="2535.81" x2="-29" y2="2535.81" gradientTransform="matrix(0, 71.68, 71.68, 0, -181726.83, 2110.89)" gradientUnits="userSpaceOnUse"><stop offset="0" stop-color="#b5e0f7"/><stop offset="0.12" stop-color="#abddf6"/><stop offset="0.31" stop-color="#91d6f4"/><stop offset="0.56" stop-color="#65caf0"/><stop offset="0.85" stop-color="#2abaeb"/><stop offset="0.95" stop-color="#15b4e9"/><stop offset="1" stop-color="#15b4e9"/></linearGradient><clipPath id="clip-path-2"><path class="cls-1" d="M30.56,9.63v.08C44.61,12.36,46,21.41,46,21.41c1.34-4.33-.12-8.28-2.51-11.36a15.48,15.48,0,0,0-13-.42"/></clipPath><linearGradient id="linear-gradient-2" x1="-30.65" y1="2561.78" x2="-30.34" y2="2561.78" gradientTransform="matrix(0, 61.08, 61.08, 0, -156437.81, 1877.6)" gradientUnits="userSpaceOnUse"><stop offset="0" stop-color="#00354e"/><stop offset="0.17" stop-color="#00354e"/><stop offset="0.39" stop-color="#004462"/><stop offset="0.66" stop-color="#005173"/><stop offset="0.85" stop-color="#005679"/><stop offset="1" stop-color="#005679"/></linearGradient><clipPath id="clip-path-3"><path class="cls-1" d="M38.43,32.62s5.82,1,7.89-2.21c1.52-2.38.41-9.77.41-9.77s-1.53,9.61-8.3,12"/></clipPath><linearGradient id="linear-gradient-3" x1="25.83" y1="2586.71" x2="26.15" y2="2586.71" gradientTransform="matrix(45.47, 0, 0, -45.47, -1138.71, 117638.99)" gradientUnits="userSpaceOnUse"><stop offset="0" stop-color="#9cafbb"/><stop offset="0.05" stop-color="#9cafbb"/><stop offset="1" stop-color="#d1dbe1"/></linearGradient></defs><title>elipslife-logo-tall</title><g id="Layer_2" data-name="Layer 2"><g id="elipclassic"><path class="cls-2" d="M74.39,38.76A2.76,2.76,0,0,1,79.21,37l1.61-2.37a5.09,5.09,0,0,0-3.76-1.32c-3.41,0-6.17,1.75-6.17,7.25V52.44h3.4V41.55h2.14l1.78-2.79Z"/><polygon class="cls-2" points="61.84 49.2 56.95 49.2 56.95 32.95 53.35 35.24 53.35 52.44 61.84 52.44 61.84 49.2"/><polygon class="cls-2" points="14.29 52.44 14.29 35.24 17.88 32.96 17.88 52.44 14.29 52.44"/><rect class="cls-2" x="20.63" y="38.75" width="3.6" height="13.68"/><rect class="cls-2" x="64.07" y="38.75" width="3.6" height="13.68"/><path class="cls-2" d="M45.87,52.55A10.86,10.86,0,0,1,40.14,51l1.2-2.7a9.7,9.7,0,0,0,4.74,1.23c1.41,0,1.83-.33,1.83-1s-.5-.92-2-1.36c-3.29-1-5.4-1.77-5.4-4.63s2.27-4,5.48-4A11,11,0,0,1,51,39.79l-1.14,2.8a9.11,9.11,0,0,0-4-1.08c-1.46,0-1.85.29-1.85.88s.41.8,2.84,1.57,4.56,1.67,4.56,4.37c0,3.11-2.5,4.22-5.58,4.22"/><path class="cls-2" d="M32.94,49.25c-1.52,0-2.76-1.66-2.76-3.72s1.24-3.71,2.76-3.71,2.76,1.67,2.76,3.71-1.24,3.72-2.76,3.72m0-10.77c-3.39,0-6.14,3.16-6.14,7.05V58.28l3.38-2.13V51.83a5.5,5.5,0,0,0,2.76.76c3.39,0,6.14-3.16,6.14-7.06s-2.75-7.05-6.14-7.05"/><path class="cls-2" d="M3.61,43.9a2.81,2.81,0,0,1,2.5-2.11A2.82,2.82,0,0,1,8.62,43.9Zm8.55,2.7a7.78,7.78,0,0,0,.07-1.09c0-3.88-2.74-7-6.11-7S0,41.63,0,45.51s2.74,7,6.12,7A5.81,5.81,0,0,0,10.82,50a7.2,7.2,0,0,0,.88-1.62H7.86a2.34,2.34,0,0,1-1.75.85A3,3,0,0,1,3.47,46.6s8.31,0,8.69,0"/><path class="cls-2" d="M81.67,43.9a2.55,2.55,0,0,1,5,0Zm8.55,2.7a7.77,7.77,0,0,0,.08-1.09c0-3.88-2.74-7-6.12-7s-6.12,3.15-6.12,7,2.74,7,6.12,7A5.84,5.84,0,0,0,88.89,50a7.17,7.17,0,0,0,.87-1.62H85.93a2.36,2.36,0,0,1-1.75.85,3,3,0,0,1-2.65-2.63s8.31,0,8.69,0"/><path class="cls-3" d="M43.73,64.62H43l.52-1.35-1.34-3.59H43l.6,1.79q.06.15.18.57c.08.28.13.45.14.5l.18-.63c0-.14.09-.28.14-.43l.62-1.8h.76Z"/><path class="cls-3" d="M47.76,63.42a1.43,1.43,0,0,1-1.15-.53,2,2,0,0,1-.46-1.37,2.07,2.07,0,0,1,.46-1.4,1.52,1.52,0,0,1,1.17-.51,1.49,1.49,0,0,1,1.17.52,2,2,0,0,1,.46,1.37A2,2,0,0,1,49,62.9a1.52,1.52,0,0,1-1.19.52m0-3.13a.75.75,0,0,0-.64.33,1.46,1.46,0,0,0-.24.88,1.43,1.43,0,0,0,.25.91.8.8,0,0,0,.67.33.79.79,0,0,0,.66-.35,1.72,1.72,0,0,0,0-1.77.83.83,0,0,0-.69-.33"/><path class="cls-3" d="M52.49,63.34V63a1,1,0,0,1-.39.32,1.32,1.32,0,0,1-.53.11c-.87,0-1.3-.55-1.3-1.64v-2.1H51v2.07a1.31,1.31,0,0,0,.19.78.69.69,0,0,0,.56.23.67.67,0,0,0,.56-.24,1.11,1.11,0,0,0,.2-.69V59.68h.71v3.66Z"/><path class="cls-3" d="M56.24,60.44a1.73,1.73,0,0,0-.24-.1,1.42,1.42,0,0,0-.31,0,.62.62,0,0,0-.52.24,1.08,1.08,0,0,0-.19.7v2.09h-.72V59.68H55V60a1,1,0,0,1,.35-.31,1.06,1.06,0,0,1,.48-.11,1.12,1.12,0,0,1,.62.15Z"/><path class="cls-3" d="M59.45,59.21a.45.45,0,0,1-.34-.13.46.46,0,0,1-.13-.33.44.44,0,0,1,.13-.33.45.45,0,0,1,.34-.13.44.44,0,0,1,.32.13.44.44,0,0,1,.13.33.46.46,0,0,1-.13.33.44.44,0,0,1-.32.13m-.37.47h.72v3.66h-.72Z"/><path class="cls-3" d="M63.11,63.34V61.27a1.21,1.21,0,0,0-.19-.77.78.78,0,0,0-1.12,0,1.07,1.07,0,0,0-.19.69v2.14h-.72V59.68h.72V60a.9.9,0,0,1,.38-.31,1.19,1.19,0,0,1,.54-.11c.86,0,1.3.54,1.3,1.63v2.1Z"/><path class="cls-3" d="M66,63.42a2.12,2.12,0,0,1-.73-.13,2.22,2.22,0,0,1-.67-.34L65,62.4a1.77,1.77,0,0,0,1.06.37c.44,0,.67-.13.67-.4a.35.35,0,0,0-.19-.31,5.09,5.09,0,0,0-.73-.33,2.33,2.33,0,0,1-.77-.45,1,1,0,0,1-.23-.68.88.88,0,0,1,.34-.74,1.48,1.48,0,0,1,.9-.25,2.11,2.11,0,0,1,.66.1,2.65,2.65,0,0,1,.58.3l-.31.55a1.63,1.63,0,0,0-1-.31.74.74,0,0,0-.38.08.3.3,0,0,0-.12.25.32.32,0,0,0,.13.26,3.58,3.58,0,0,0,.69.32,3.33,3.33,0,0,1,.82.45A1.1,1.1,0,0,1,67,63.16a1.78,1.78,0,0,1-1,.26"/><path class="cls-3" d="M70.52,63.34V63a.92.92,0,0,1-.38.32,1.33,1.33,0,0,1-.54.11c-.86,0-1.3-.55-1.3-1.64v-2.1H69v2.07a1.24,1.24,0,0,0,.19.78.78.78,0,0,0,1.12,0,1.11,1.11,0,0,0,.19-.69V59.68h.72v3.66Z"/><path class="cls-3" d="M74.28,60.44l-.25-.1a1.26,1.26,0,0,0-.3,0,.64.64,0,0,0-.53.24,1.14,1.14,0,0,0-.19.7v2.09H72.3V59.68H73V60a1,1,0,0,1,.35-.31,1.26,1.26,0,0,1,1.11,0Z"/><path class="cls-3" d="M77.3,63.34V63a1.72,1.72,0,0,1-.46.32,1.25,1.25,0,0,1-.54.12,1.39,1.39,0,0,1-.89-.3,1.15,1.15,0,0,1-.38-.93,1.05,1.05,0,0,1,.4-.89,1.73,1.73,0,0,1,1.06-.3,1.9,1.9,0,0,1,.81.14v-.27c0-.42-.23-.62-.69-.62a1.83,1.83,0,0,0-1,.23l-.28-.55a2.56,2.56,0,0,1,.56-.24,3,3,0,0,1,.69-.08,1.48,1.48,0,0,1,1,.31,1.1,1.1,0,0,1,.37.91v2.51Zm0-1.56a1.09,1.09,0,0,0-.36-.12,2.09,2.09,0,0,0-.48,0,.87.87,0,0,0-.54.15.45.45,0,0,0-.21.39.58.58,0,0,0,.18.45.75.75,0,0,0,.53.16,1,1,0,0,0,.5-.13,1.27,1.27,0,0,0,.38-.34Z"/><path class="cls-3" d="M81.25,63.34V61.27a1.21,1.21,0,0,0-.19-.77.78.78,0,0,0-1.12,0,1.07,1.07,0,0,0-.19.69v2.14H79V59.68h.72V60a.9.9,0,0,1,.38-.31,1.19,1.19,0,0,1,.54-.11c.87,0,1.3.54,1.3,1.63v2.1Z"/><path class="cls-3" d="M85.29,60.73a1.28,1.28,0,0,0-.89-.44.73.73,0,0,0-.63.32,1.56,1.56,0,0,0-.23.89,1.62,1.62,0,0,0,.23.9.76.76,0,0,0,.65.34.82.82,0,0,0,.42-.11,2.14,2.14,0,0,0,.41-.34l.46.45a2,2,0,0,1-.55.5,1.45,1.45,0,0,1-.76.18,1.39,1.39,0,0,1-1.12-.53,2,2,0,0,1-.46-1.37,2.07,2.07,0,0,1,.46-1.4,1.45,1.45,0,0,1,1.14-.51,1.61,1.61,0,0,1,1.29.62Z"/><path class="cls-3" d="M89.57,61.76H87.16a1.24,1.24,0,0,0,.31.76.81.81,0,0,0,.61.25,1.1,1.1,0,0,0,.41-.07,2.07,2.07,0,0,0,.39-.23l.42.47a1.64,1.64,0,0,1-.55.36,1.88,1.88,0,0,1-.71.12,1.45,1.45,0,0,1-1.13-.51,2,2,0,0,1-.45-1.39,2.07,2.07,0,0,1,.43-1.41,1.45,1.45,0,0,1,1.17-.5,1.35,1.35,0,0,1,1.14.52,2.13,2.13,0,0,1,.4,1.31ZM88,60.25c-.49,0-.77.31-.84.92h1.71a1,1,0,0,0-.22-.66.81.81,0,0,0-.65-.26"/><path class="cls-2" d="M30.54,5.41S28.43,8.24,31.92,19s7.14,12.75,7.14,12.75-8.44,4.16-14.44-6.33,3.14-17.63,5.92-20"/><path class="cls-3" d="M30.57,9.71s-.47-6.08,3.27-6.08S49.09,11.57,46,21.41c0,0-1.42-9-15.46-11.7"/><g class="cls-4"><rect class="cls-5" x="22.62" y="9.92" width="16.43" height="25.95"/></g><g class="cls-6"><rect class="cls-7" x="28.43" y="4.37" width="21.08" height="21.08" transform="translate(0.87 31.92) rotate(-45)"/></g><g class="cls-8"><rect class="cls-9" x="35.21" y="19.22" width="15.85" height="15.85" transform="translate(-6.56 38.45) rotate(-45)"/></g></g></g></svg>